<svg width="32" height="31" viewBox="0 0 32 31" fill="none" xmlns="http://www.w3.org/2000/svg">
<g id="Group 22">
<path id="Rectangle 3167" d="M31.1143 15.0762C31.1143 6.74984 24.3645 0 16.0381 0C7.71176 0 0.961914 6.74984 0.961914 15.0762C0.961914 23.4026 7.71176 30.1524 16.0381 30.1524C24.3645 30.1524 31.1143 23.4026 31.1143 15.0762Z" fill="white"/>
<path id="Vector" d="M17.1016 23.4518V15.3516H19.8674L20.2821 12.1948H17.1016V10.1792C17.1016 9.2653 17.3599 8.64243 18.6931 8.64243H20.3935V5.81977C19.5704 5.73417 18.7432 5.69271 17.9156 5.69557C15.4639 5.69557 13.7855 7.16665 13.7855 9.86841V12.1948H11.0127V15.3516H13.7855V23.4518H17.1016Z" fill="#46178F"/>
</g>
</svg>
