<svg width="31" height="31" viewBox="0 0 31 31" fill="none" xmlns="http://www.w3.org/2000/svg">
<g id="Group 23">
<circle id="Ellipse 5" cx="15.9238" cy="15.0762" r="15.0762" fill="white"/>
<path id="Vector" d="M22.8384 14.0904V11.3995C21.5821 11.3995 20.6233 11.0631 20.0046 10.4093C19.3695 9.66315 19.0138 8.71823 18.9985 7.73728V7.54303L16.4622 7.48145C16.4622 7.48145 16.4622 7.59041 16.4622 7.73728V18.4112C16.3752 18.888 16.1444 19.3267 15.801 19.6678C15.4577 20.0089 15.0182 20.2362 14.542 20.3189C14.0657 20.4015 13.5757 20.3356 13.138 20.1301C12.7002 19.9246 12.3359 19.5892 12.0942 19.1694C11.8525 18.7496 11.745 18.2655 11.7863 17.7825C11.8276 17.2995 12.0156 16.8408 12.3249 16.4684C12.6343 16.0959 13.0502 15.8277 13.5164 15.6998C13.9826 15.5719 14.4767 15.5906 14.9319 15.7534V13.1477C14.6665 13.104 14.398 13.0818 14.129 13.0813C13.1612 13.0813 12.2152 13.3692 11.4105 13.9085C10.6058 14.4478 9.97866 15.2144 9.60831 16.1112C9.23796 17.0081 9.14106 17.995 9.32986 18.9471C9.51867 19.8992 9.98469 20.7737 10.669 21.4601C11.3533 22.1466 12.2252 22.614 13.1744 22.8034C14.1236 22.9928 15.1074 22.8956 16.0015 22.5241C16.8956 22.1526 17.6598 21.5235 18.1975 20.7164C18.7352 19.9092 19.0221 18.9603 19.0221 17.9895C19.0216 17.7884 19.009 17.5875 18.9844 17.3878V13.0529C20.1377 13.7754 21.4795 14.1366 22.8384 14.0904V14.0904Z" fill="#46178F"/>
</g>
</svg>
