<svg width="32" height="31" viewBox="0 0 32 31" fill="none" xmlns="http://www.w3.org/2000/svg">
<g id="Group">
<path id="Vector" d="M15.9619 30.1524C24.2883 30.1524 31.0381 23.4026 31.0381 15.0762C31.0381 6.74984 24.2883 0 15.9619 0C7.63559 0 0.885742 6.74984 0.885742 15.0762C0.885742 23.4026 7.63559 30.1524 15.9619 30.1524Z" fill="white"/>
<g id="Group_2">
<path id="Vector_2" d="M25.1967 10.8347C24.5506 11.1211 23.8556 11.3149 23.1268 11.4014C23.8709 10.9556 24.442 10.2501 24.7116 9.40815C24.0153 9.82121 23.2437 10.1209 22.4232 10.2824C21.7658 9.5823 20.8293 9.14478 19.7922 9.14478C17.8023 9.14478 16.1885 10.7586 16.1885 12.7484C16.1885 13.0309 16.2205 13.3058 16.2823 13.5697C13.2874 13.4195 10.6319 11.9849 8.8544 9.80401C8.54426 10.3361 8.36635 10.9556 8.36635 11.6159C8.36635 12.8659 9.00302 13.9693 9.96943 14.6154C9.37899 14.5969 8.82296 14.4348 8.33733 14.1642C8.33706 14.1795 8.33706 14.1948 8.33706 14.2099C8.33706 15.9559 9.57975 17.4123 11.228 17.7431C10.9259 17.8259 10.6069 17.8697 10.2788 17.8697C10.046 17.8697 9.82055 17.8474 9.60071 17.8054C10.0592 19.2368 11.3898 20.2787 12.967 20.308C11.7335 21.2747 10.1799 21.8506 8.49105 21.8506C8.2008 21.8506 7.91325 21.8337 7.63187 21.8001C9.22581 22.8229 11.1205 23.4193 13.1554 23.4193C19.7838 23.4193 23.4087 17.9283 23.4087 13.1658C23.4087 13.0096 23.4052 12.854 23.3982 12.6998C24.1029 12.1918 24.7137 11.5573 25.1967 10.8347Z" fill="#46178F"/>
</g>
</g>
</svg>
