<svg width="218" height="29" viewBox="0 0 218 29" fill="none" xmlns="http://www.w3.org/2000/svg">
<g id="Group 50">
<path id="Logo" fill-rule="evenodd" clip-rule="evenodd" d="M0.000244043 11.9119C5.36438 21.6857 14.4684 28.1152 24.7968 28.1152C25.7851 28.1152 26.7623 28.0563 27.7261 27.9413C27.9824 26.0104 28.1156 24.0289 28.1156 22.0092C28.1156 13.749 25.8868 6.12731 22.1264 -0.000487754L18.9707 11.9119H0.000244043Z" fill="white"/>
<g id="Kurtis Classrom">
<path d="M42.591 26.3514C42.4486 27.1628 42.0315 27.5735 41.3397 27.5836C41.1057 27.5836 40.8921 27.5184 40.6988 27.3882C40.3021 27.1278 40.1037 26.707 40.1037 26.126L42.8657 5.4352C42.886 5.27493 42.9318 5.11465 43.003 4.95437C43.2268 4.49357 43.588 4.26318 44.0865 4.26318C44.2797 4.26318 44.4679 4.31326 44.6511 4.41344C45.058 4.63382 45.2767 4.97441 45.3072 5.4352L44.3001 13.5042C49.3154 7.9746 51.9502 5.10463 52.2046 4.89427C52.5606 4.54366 52.9065 4.36836 53.2422 4.36836C53.466 4.36836 53.6746 4.42846 53.8678 4.54867C54.2544 4.77907 54.4477 5.10964 54.4477 5.54039C54.4477 5.84091 54.3358 6.15645 54.112 6.48703C53.8373 6.83763 50.6939 10.2686 44.6816 16.7798C45.3428 17.3609 46.0855 18.022 46.9095 18.7633C51.1822 22.5599 53.6135 24.7486 54.2036 25.3297C54.58 25.7103 54.7732 26.0609 54.7834 26.3815C54.7834 26.6119 54.7122 26.8272 54.5698 27.0276C54.3256 27.3982 54.0001 27.5836 53.5932 27.5836C53.2371 27.5836 52.9065 27.4734 52.6013 27.253C52.2554 27.0126 49.2442 24.3129 43.5676 19.154C43.0895 22.9004 42.764 25.2996 42.591 26.3514Z" fill="white"/>
<path d="M74.6819 25.1644C74.4174 24.373 74.2852 23.3512 74.2852 22.0991C74.2852 21.1474 74.3818 20.0104 74.5751 18.6882C74.2292 18.8584 73.8477 18.9837 73.4306 19.0638C73.3086 19.6749 73.1509 20.2959 72.9576 20.927C72.2658 23.231 71.4113 24.9841 70.394 26.1861C70.221 26.3865 70.0125 26.5818 69.7683 26.7722C68.9036 27.4333 67.9931 27.7639 67.0369 27.7639C65.7754 27.7539 64.8751 27.1879 64.3359 26.0659C63.4407 27.1578 62.2098 27.7088 60.6431 27.7188C60.287 27.7188 59.9513 27.6737 59.636 27.5836C57.8455 27.0627 56.9503 25.1293 56.9503 21.7835C56.9503 21.7234 56.9503 21.6583 56.9503 21.5882C56.9706 19.9654 57.1487 18.4227 57.4844 16.9602C57.7794 15.688 58.2779 15.0468 58.9798 15.0368C59.6411 15.0468 59.9819 15.4425 60.0022 16.2239C60.0022 16.3741 59.9564 16.7147 59.8649 17.2457C59.5088 19.5196 59.3308 21.1574 59.3308 22.1592C59.3308 24.2428 59.8649 25.2946 60.933 25.3146C62.3674 25.2145 63.339 23.3663 63.8476 19.77C63.9799 18.7983 64.0765 17.7065 64.1375 16.4944C64.1477 16.3942 64.1528 16.3341 64.1528 16.314C64.2342 15.5227 64.6259 15.122 65.3278 15.112C65.399 15.112 65.4702 15.117 65.5414 15.127C66.0501 15.2272 66.3044 15.6279 66.3044 16.3291C66.0501 18.9135 65.9229 21.1224 65.9229 22.9555C65.9229 23.216 65.9433 23.4815 65.984 23.7519C66.1467 24.944 66.5893 25.54 67.3115 25.54C68.1152 25.54 68.8629 24.939 69.5547 23.7369C70.0939 22.8053 70.6941 21.2275 71.3553 19.0037C71.0298 18.9135 70.7246 18.7933 70.4398 18.6431C69.3818 18.0521 68.8528 17.1154 68.8528 15.8332C68.8528 15.4125 68.9596 15.0118 69.1732 14.6311C69.6208 13.8698 70.3329 13.4892 71.3096 13.4892C71.808 13.4892 72.2811 13.6194 72.7287 13.8798C73.4612 14.3206 73.8274 14.9367 73.8274 15.728C73.8274 16.0486 73.802 16.4593 73.7511 16.9602C74.1478 16.7598 74.6819 16.4192 75.3533 15.9384C75.5466 15.8082 75.7755 15.738 76.04 15.728C76.447 15.738 76.7979 15.8683 77.0929 16.1187C77.2557 16.2489 77.3422 16.3842 77.3524 16.5244C77.3524 16.6346 77.3167 16.7949 77.2455 17.0052C76.7165 18.7683 76.452 20.2859 76.452 21.5581C76.452 22.3595 76.5385 23.1258 76.7115 23.8571C76.7115 23.8771 76.7165 23.9022 76.7267 23.9322C76.9607 24.7637 77.388 25.1794 78.0085 25.1794C78.3137 25.1493 78.8224 24.929 79.5345 24.5182C80.1652 24.1075 80.6332 23.9022 80.9384 23.9022C81.091 23.9022 81.2435 23.9573 81.3961 24.0675C81.6606 24.2578 81.7929 24.4832 81.7929 24.7436C81.7522 25.3046 81.3504 25.8806 80.5874 26.4716C79.682 27.1127 78.7155 27.4333 77.6881 27.4333C77.4541 27.4333 77.2201 27.4083 76.9861 27.3582C75.8976 27.1177 75.1295 26.3865 74.6819 25.1644ZM70.6839 15.9384C70.6941 16.4994 71.0501 16.9001 71.7521 17.1405C71.8538 16.6096 71.9047 16.2089 71.9047 15.9384C71.9047 15.8783 71.8945 15.8132 71.8742 15.7431C71.8029 15.4726 71.6147 15.3374 71.3096 15.3374C71.2587 15.3374 71.1977 15.3474 71.1264 15.3674C70.8314 15.4475 70.6839 15.6379 70.6839 15.9384Z" fill="white"/>
<path d="M81.7166 10.9498C81.7268 10.9498 81.7776 10.9498 81.8692 10.9498C82.4389 10.9698 82.9526 10.9798 83.4104 10.9798L84.0818 6.33677C84.1225 6.02623 84.1734 5.76578 84.2344 5.55541C84.4175 4.89427 84.7889 4.5637 85.3484 4.5637C85.4603 4.5637 85.5722 4.57371 85.6841 4.59375C86.152 4.70394 86.386 5.13969 86.386 5.90101C86.386 6.14143 86.1826 7.83436 85.7756 10.9798H87.3779C87.6526 10.9798 87.8916 11.0349 88.0951 11.1451C88.4512 11.3555 88.6292 11.666 88.6292 12.0767C88.6292 12.257 88.5834 12.4273 88.4919 12.5876C88.2579 12.9682 87.8764 13.1586 87.3474 13.1586H85.4552C84.6617 19.169 84.2649 22.5398 84.2649 23.2711C84.2649 23.7319 84.3616 24.1626 84.5549 24.5633C84.8397 25.1644 85.2161 25.4649 85.6841 25.4649C85.796 25.4649 85.913 25.4499 86.0351 25.4198C86.3097 25.3497 86.7014 25.1193 87.21 24.7286C87.7085 24.3379 88.1256 24.1426 88.4613 24.1426C88.6038 24.1426 88.7411 24.1726 88.8733 24.2328C89.2396 24.4131 89.4227 24.6885 89.4227 25.0592C89.3922 25.5801 89.0005 26.121 88.2477 26.682C87.3321 27.3331 86.3606 27.6587 85.3331 27.6587C84.326 27.6487 83.502 27.2329 82.8611 26.4115C82.21 25.54 81.8845 24.4431 81.8845 23.1208C81.8845 22.8303 82.2863 19.5096 83.09 13.1586H81.7166C81.6556 13.1586 81.5945 13.1586 81.5335 13.1586C80.8315 13.0985 80.4806 12.7378 80.4806 12.0767C80.4806 11.8964 80.5111 11.7311 80.5721 11.5808C80.7552 11.1601 81.1367 10.9498 81.7166 10.9498Z" fill="white"/>
<path d="M95.6028 15.7881C95.7859 15.2672 96.1623 15.0018 96.732 14.9918H96.8236C97.0474 15.0018 97.2712 15.0268 97.495 15.0669C99.143 15.3374 100.486 16.1938 101.524 17.6363C102.5 18.9887 102.988 20.5213 102.988 22.2343C102.988 23.8671 102.521 25.2996 101.585 26.5317C101.564 26.5518 101.544 26.5818 101.524 26.6219C101.137 27.0927 100.715 27.3281 100.257 27.3281C100.094 27.3281 99.9315 27.273 99.7687 27.1628C99.4533 26.9324 99.2956 26.6219 99.2956 26.2312C99.2956 26.101 99.3211 25.9658 99.3719 25.8255C99.3719 25.8255 99.4279 25.7203 99.5398 25.51C100.282 24.3279 100.659 23.1609 100.669 22.0089C100.669 21.8787 100.664 21.7434 100.654 21.6032C100.552 20.321 100.043 19.2241 99.1278 18.3125C98.5276 17.7115 97.9833 17.4059 97.495 17.3959C97.3933 17.7866 97.2102 18.5028 96.9457 19.5446C96.3861 21.8386 95.8317 23.5916 95.2824 24.8037C94.438 26.667 93.0189 27.6086 91.0249 27.6286C90.1704 27.6286 89.4634 27.3381 88.9039 26.7571C88.0392 25.8556 87.6068 24.4181 87.6068 22.4447C87.6068 21.7835 87.739 20.4863 88.0035 18.5529C88.1358 17.6113 88.2274 16.9251 88.2782 16.4944C88.2884 16.3842 88.3037 16.274 88.324 16.1638C88.4868 15.2121 88.8988 14.7363 89.56 14.7363C89.6923 14.7363 89.8194 14.7513 89.9415 14.7814C90.379 14.9016 90.5977 15.3273 90.5977 16.0586C90.5977 16.3491 90.5468 16.9752 90.4451 17.9369C90.1297 20.7818 89.972 22.5498 89.972 23.241C89.972 23.7119 90.0687 24.1476 90.262 24.5483C90.5468 25.1393 90.9232 25.4348 91.3912 25.4348C92.0321 25.4248 92.6119 24.969 93.1308 24.0675C93.5479 23.3262 94.0107 21.9839 94.5194 20.0405C94.5397 19.9503 94.9009 18.5329 95.6028 15.7881ZM88.8581 12.1368C88.8581 11.9565 88.9039 11.7812 88.9954 11.6109C89.1989 11.2202 89.5244 11.0249 89.972 11.0249C90.1551 11.0249 90.3332 11.07 90.5061 11.1601C90.8927 11.3705 91.086 11.696 91.086 12.1368C91.086 12.3171 91.0402 12.4924 90.9486 12.6627C90.7452 13.0434 90.4196 13.2337 89.972 13.2337C89.7787 13.2337 89.6007 13.1886 89.4379 13.0985C89.0514 12.8881 88.8581 12.5676 88.8581 12.1368Z" fill="white"/>
<path d="M128.945 9.62746C128.721 9.08653 128.447 8.59568 128.121 8.15491C127.328 7.12313 126.453 6.60723 125.496 6.60723C124.876 6.60723 124.25 6.83262 123.619 7.2834C122.419 8.12486 121.386 9.58739 120.522 11.671C119.616 13.8147 119.164 15.9184 119.164 17.9819C119.164 19.9654 119.489 21.6182 120.14 22.9405C120.863 24.403 121.849 25.1343 123.101 25.1343C123.68 25.1343 124.326 24.8739 125.039 24.353C126.158 23.5215 127.119 22.3144 127.923 20.7317C127.943 20.6716 127.973 20.6115 128.014 20.5514C128.248 20.1607 128.589 19.9654 129.037 19.9654C129.25 19.9654 129.454 20.0155 129.647 20.1156C130.054 20.346 130.257 20.6966 130.257 21.1674C130.257 21.3377 130.206 21.5331 130.105 21.7535C129.454 23.1158 128.67 24.2728 127.755 25.2245C126.229 26.7972 124.591 27.5836 122.841 27.5836C122.617 27.5836 122.394 27.5685 122.17 27.5385C120.603 27.3181 119.306 26.4015 118.279 24.7887C117.139 22.9956 116.569 20.7517 116.569 18.0571C116.569 16.4543 116.803 14.8315 117.271 13.1886C118.004 10.6042 119.133 8.46044 120.659 6.75749C122.256 4.99444 123.945 4.11292 125.725 4.11292C126.488 4.11292 127.216 4.2782 127.907 4.60877C129.372 5.33002 130.471 6.68737 131.203 8.68082C131.285 8.87115 131.326 9.05647 131.326 9.23679C131.326 9.44715 131.27 9.6475 131.158 9.83783C130.914 10.2385 130.563 10.4389 130.105 10.4389C129.637 10.4088 129.25 10.1383 128.945 9.62746Z" fill="white"/>
<path d="M140.512 27.5836C138.06 27.4834 136.244 26.0108 135.064 23.1659C134.189 21.0222 133.752 18.3976 133.752 15.2923C133.752 15.132 133.762 14.9266 133.782 14.6762C133.925 12.5625 134.321 10.6242 134.973 8.86114C136.031 6.01621 137.526 4.59375 139.459 4.59375C139.561 4.59375 139.667 4.59876 139.779 4.60877C141.539 4.71896 142.419 5.72571 142.419 7.629C142.419 9.70259 141.514 12.0066 139.703 14.541C138.553 16.1538 137.348 17.461 136.087 18.4628C136.432 20.3661 136.814 21.7935 137.231 22.7452C138.004 24.5082 139.154 25.3898 140.68 25.3898C140.781 25.3898 140.888 25.3797 141 25.3597C141.336 25.2996 141.804 25.0592 142.404 24.6385C142.984 24.2478 143.437 24.0524 143.762 24.0524C143.905 24.0524 144.042 24.0975 144.174 24.1877C144.469 24.388 144.617 24.6585 144.617 24.9991C144.596 25.52 144.22 26.0559 143.487 26.6069C142.572 27.258 141.58 27.5836 140.512 27.5836ZM139.474 6.86268C138.874 6.87269 138.345 7.12814 137.887 7.629C136.727 8.92124 136.092 11.6209 135.98 15.728C136.59 15.117 137.2 14.3957 137.811 13.5643C139.5 11.2903 140.344 9.37202 140.344 7.80932C140.344 7.72918 140.324 7.63401 140.283 7.52382C140.12 7.08306 139.851 6.86268 139.474 6.86268Z" fill="white"/>
<path d="M155.726 20.4612C155.726 20.4612 156.133 18.8685 156.946 15.6829C157.16 15.162 157.536 14.8966 158.076 14.8866C158.279 14.8966 158.482 14.9166 158.686 14.9467C160.395 15.2171 161.784 16.0736 162.852 17.5161C163.849 18.8685 164.347 20.4111 164.347 22.1441C164.327 23.216 164.073 24.3079 163.584 25.4198C163.025 26.6319 162.369 27.238 161.616 27.238C161.412 27.238 161.219 27.1528 161.036 26.9825C160.771 26.7321 160.639 26.4566 160.639 26.1561C160.639 26.0259 160.665 25.8906 160.715 25.7504C160.715 25.7504 160.777 25.6402 160.899 25.4198C161.631 24.2678 162.002 23.1008 162.013 21.9187C162.013 21.7785 162.007 21.6383 161.997 21.498C161.896 20.2058 161.382 19.1089 160.456 18.2073C159.866 17.6063 159.327 17.3008 158.839 17.2907C158.737 17.6714 158.569 18.3626 158.335 19.3643C157.816 21.6082 157.318 23.241 156.84 24.2628C155.792 26.4566 154.271 27.5535 152.277 27.5535C150.995 27.5435 150.059 26.9074 149.469 25.6452C149.337 25.7955 149.184 25.9507 149.011 26.111C147.984 27.0727 146.946 27.5535 145.898 27.5535C145.247 27.5535 144.688 27.3882 144.22 27.0576C143.172 26.3264 142.648 24.8939 142.648 22.7602C142.648 22.4196 142.668 22.059 142.709 21.6783C142.923 19.9654 143.472 18.4427 144.357 17.1104C145.446 15.4776 146.748 14.6612 148.264 14.6612C148.925 14.6612 149.5 14.7864 149.988 15.0368C150.191 14.7964 150.461 14.6712 150.797 14.6612C150.929 14.6612 151.056 14.6762 151.178 14.7063C151.616 14.8265 151.834 15.2522 151.834 15.9835C151.834 16.274 151.784 16.9001 151.682 17.8617C151.366 20.7066 151.209 22.4747 151.209 23.1659C151.209 23.5466 151.275 23.9122 151.407 24.2628C151.661 24.974 152.063 25.3297 152.613 25.3297C153.274 25.3196 153.859 24.929 154.367 24.1576C154.795 23.4764 155.247 22.2443 155.726 20.4612ZM148.081 23.782C148.152 23.6718 148.238 23.4564 148.34 23.1359C148.757 21.7735 149.139 19.6648 149.484 16.8099C149.23 16.6897 148.996 16.6296 148.782 16.6296C148.589 16.6296 148.396 16.6546 148.203 16.7047C147.267 16.9852 146.473 17.8567 145.822 19.3192C145.232 20.6315 144.937 21.9388 144.937 23.241C144.937 23.4314 144.947 23.6117 144.968 23.782C145.059 24.7537 145.369 25.2395 145.898 25.2395C146.183 25.2395 146.529 25.0993 146.936 24.8188C147.414 24.4882 147.796 24.1426 148.081 23.782Z" fill="white"/>
<path d="M166.621 18.9436C166.631 18.9236 166.651 18.8785 166.682 18.8084C167.608 16.7448 168.071 15.703 168.071 15.6829C168.071 15.6729 168.076 15.6629 168.086 15.6529C168.289 15.142 168.676 14.8866 169.246 14.8866C169.449 14.8966 169.658 14.9166 169.871 14.9467C171.58 15.2071 172.969 16.0636 174.037 17.5161C175.024 18.8685 175.517 20.4111 175.517 22.1441C175.517 23.0557 175.334 24.0124 174.968 25.0141C174.439 26.4867 173.717 27.2229 172.801 27.2229C172.638 27.2229 172.47 27.1678 172.298 27.0576C171.972 26.8172 171.809 26.5067 171.809 26.126C171.809 25.9958 171.84 25.8606 171.901 25.7203C171.901 25.7203 171.957 25.6202 172.069 25.4198C172.801 24.2478 173.172 23.0808 173.183 21.9187C173.183 21.7885 173.177 21.6533 173.167 21.513C173.066 20.2208 172.557 19.1189 171.641 18.2073C171.041 17.6063 170.502 17.3008 170.024 17.2907C169.851 17.6113 169.48 18.3275 168.91 19.4395C168.91 19.4395 168.905 19.4495 168.895 19.4695C168.884 19.4895 168.874 19.5046 168.864 19.5146C168.427 20.346 167.964 20.7617 167.475 20.7617C167.333 20.7617 167.186 20.7317 167.033 20.6716C166.626 20.4913 166.423 20.1908 166.423 19.77C166.423 19.6097 166.473 19.3844 166.575 19.0939C166.596 19.0237 166.611 18.9736 166.621 18.9436Z" fill="white"/>
<path d="M185.1 23.9322C185.1 23.9423 185.105 23.9523 185.116 23.9623C185.441 24.8939 185.873 25.3597 186.413 25.3597C186.728 25.3397 187.237 25.1193 187.939 24.6986C188.569 24.2878 189.042 24.0825 189.358 24.0825C189.51 24.0825 189.663 24.1326 189.816 24.2328C190.08 24.4331 190.212 24.6635 190.212 24.924C190.172 25.4749 189.77 26.0459 189.007 26.6369C188.091 27.288 187.125 27.6136 186.107 27.6136C185.436 27.6136 184.856 27.4433 184.368 27.1027C183.228 26.3013 182.659 24.6735 182.659 22.2193C182.659 21.7384 182.679 21.2326 182.72 20.7016C182.801 19.6799 182.883 19.0538 182.964 18.8234C182.293 19.164 181.596 19.3343 180.873 19.3343C180.792 19.3343 180.67 19.3243 180.507 19.3042C180.426 19.2942 180.365 19.2892 180.324 19.2892C180.294 19.3092 180.177 19.3743 179.973 19.4845C179.291 19.8752 178.742 20.0705 178.325 20.0705C178.203 20.0705 178.076 20.0405 177.944 19.9804C177.628 19.8201 177.471 19.5897 177.471 19.2892C177.471 19.2391 177.476 19.189 177.486 19.1389C177.516 18.9386 177.674 18.7282 177.959 18.5078C178.071 18.4277 178.152 18.3626 178.203 18.3125C177.572 17.7415 177.252 16.9602 177.242 15.9684C177.242 15.5377 177.348 15.137 177.562 14.7664C178.01 13.995 178.722 13.6094 179.698 13.6094C180.197 13.6094 180.67 13.7396 181.118 14C181.85 14.4508 182.216 15.0719 182.216 15.8633C182.216 16.3341 182.145 16.7598 182.003 17.1405C182.155 17.0704 182.42 16.9051 182.796 16.6446C183.569 16.1237 184.114 15.8633 184.429 15.8633C184.846 15.8733 185.197 15.9985 185.482 16.2389C185.634 16.3691 185.716 16.5144 185.726 16.6747C185.726 16.7348 185.711 16.8249 185.68 16.9451C185.65 17.0353 185.634 17.1004 185.634 17.1405C185.105 18.9035 184.841 20.4161 184.841 21.6783C184.841 22.2293 184.907 22.8504 185.039 23.5416C185.07 23.7219 185.09 23.8521 185.1 23.9322ZM180.294 16.0586C180.294 15.9885 180.283 15.9133 180.263 15.8332C180.171 15.5828 179.983 15.4576 179.698 15.4576C179.637 15.4576 179.571 15.4676 179.5 15.4876C179.215 15.5778 179.073 15.7681 179.073 16.0586C179.083 16.5294 179.337 16.89 179.836 17.1405C180.131 16.8299 180.283 16.4693 180.294 16.0586Z" fill="white"/>
<path d="M192.547 14.9617C192.903 14.9717 193.239 15.0068 193.554 15.0669C195.121 15.3975 196.082 16.5995 196.438 18.6731C196.631 18.5629 196.952 18.3576 197.4 18.0571C198.01 17.6463 198.473 17.441 198.788 17.441C198.941 17.441 199.088 17.4861 199.231 17.5762C199.546 17.7766 199.704 18.047 199.704 18.3876C199.694 18.7282 199.47 19.1039 199.032 19.5146C198.412 20.0756 197.608 20.5514 196.621 20.9421C196.611 22.5048 196.372 23.8271 195.904 24.9089C195.141 26.672 193.89 27.5535 192.15 27.5535C191.53 27.5535 190.909 27.3582 190.289 26.9675C188.854 26.0359 188.137 24.358 188.137 21.9338C188.137 20.4712 188.386 19.1389 188.885 17.9369C189.668 16.0436 190.889 15.0519 192.547 14.9617ZM194.454 21.3327C194.058 21.3227 193.681 21.2826 193.325 21.2125C191.982 20.932 191.118 20.2308 190.731 19.1089C190.467 19.9503 190.334 20.8669 190.334 21.8586C190.334 22.3395 190.38 22.8053 190.472 23.2561C190.757 24.6284 191.377 25.3146 192.333 25.3146C192.649 25.3146 192.934 25.2195 193.188 25.0291C193.931 24.4682 194.353 23.236 194.454 21.3327ZM194.226 19.2892C194.226 19.2892 194.297 19.2892 194.439 19.2892C194.287 17.9168 193.92 17.2256 193.34 17.2156C193.29 17.2156 193.239 17.2206 193.188 17.2306C192.964 17.3108 192.852 17.4761 192.852 17.7265C192.852 17.9469 192.888 18.1622 192.959 18.3726C193.183 18.9837 193.605 19.2892 194.226 19.2892Z" fill="white"/>
<path d="M200.436 25.7654C200.395 26.126 200.289 26.4516 200.116 26.7421C199.821 27.2329 199.449 27.4784 199.002 27.4784C198.89 27.4784 198.783 27.4583 198.681 27.4183C198.173 27.2079 197.918 26.677 197.918 25.8255L199.215 16.3441C199.236 16.1638 199.266 15.9935 199.307 15.8332C199.48 15.0018 199.872 14.586 200.482 14.586C200.614 14.586 200.741 14.6011 200.863 14.6311C201.301 14.7513 201.52 15.1771 201.52 15.9083C201.52 16.1988 201.504 16.5294 201.474 16.9001C201.484 16.88 201.499 16.855 201.52 16.8249C202.283 15.4826 203.366 14.8114 204.77 14.8114C205.187 14.8114 205.619 14.9216 206.067 15.142C206.759 15.4926 207.196 15.9634 207.379 16.5545C208.112 15.4726 209.124 14.9266 210.416 14.9166C210.914 14.9166 211.377 15.0669 211.805 15.3674C212.425 15.8082 212.735 16.3992 212.735 17.1405C212.735 17.6213 212.73 18.3576 212.72 19.3493C212.7 20.4412 212.69 21.2776 212.69 21.8586C212.69 22.3094 212.7 22.7001 212.72 23.0307C212.842 24.6034 213.331 25.3898 214.185 25.3898C214.287 25.3898 214.394 25.3797 214.506 25.3597C214.801 25.2896 215.233 25.0542 215.803 24.6535C216.362 24.2528 216.81 24.0524 217.145 24.0524C217.278 24.0524 217.405 24.0925 217.527 24.1726C217.842 24.363 218 24.6585 218 25.0592C218 25.0892 217.995 25.1293 217.985 25.1794C217.914 25.6602 217.491 26.1561 216.718 26.667C215.772 27.2981 214.831 27.6136 213.895 27.6136C213.132 27.6136 212.486 27.4083 211.957 26.9975C210.869 26.136 210.324 24.2478 210.324 21.3327C210.324 21.1624 210.329 20.887 210.34 20.5063C210.36 19.9553 210.37 19.4795 210.37 19.0788C210.37 18.027 210.248 17.4911 210.004 17.471C209.8 17.471 209.561 17.6263 209.287 17.9369C208.575 18.7483 207.812 20.2458 206.998 22.4296L206.738 24.9991C206.677 25.6602 206.591 26.1661 206.479 26.5167C206.265 27.1979 205.858 27.5385 205.258 27.5385C205.095 27.5385 204.943 27.5034 204.8 27.4333C204.363 27.2329 204.144 26.8172 204.144 26.1861C204.144 25.5751 204.287 24.4782 204.572 22.8954C204.958 20.7217 205.151 19.2341 205.151 18.4327C205.151 18.2223 205.131 18.037 205.09 17.8767C205.009 17.5362 204.795 17.3659 204.449 17.3659C204.266 17.3759 204.063 17.4811 203.839 17.6814C203.086 18.3826 202.252 20.0155 201.337 22.5799C200.736 24.2528 200.436 25.3146 200.436 25.7654Z" fill="white"/>
</g>
</g>
</svg>
