<svg width="31" height="31" viewBox="0 0 31 31" fill="none" xmlns="http://www.w3.org/2000/svg">
<g id="Group 21">
<path id="Vector" d="M0 15.0762C0 6.74987 6.74987 0 15.0762 0C23.4025 0 30.1524 6.74987 30.1524 15.0762C30.1524 23.4025 23.4025 30.1524 15.0762 30.1524C6.74987 30.1524 0 23.4025 0 15.0762Z" fill="white"/>
<path id="Vector_2" fill-rule="evenodd" clip-rule="evenodd" d="M10.8793 9.31124C10.8793 10.2969 10.1373 11.0856 8.94599 11.0856H8.92413C7.77714 11.0856 7.03558 10.2969 7.03558 9.31124C7.03558 8.30471 7.7997 7.53809 8.96848 7.53809C10.1373 7.53809 10.8571 8.30471 10.8793 9.31124ZM10.6542 12.4867V22.7522H7.2376V12.4867H10.6542ZM22.9756 22.7522L22.9758 16.8663C22.9758 13.7132 21.2903 12.2457 19.042 12.2457C17.228 12.2457 16.4158 13.242 15.9624 13.941V12.487H12.5454C12.5904 13.4503 12.5454 22.7525 12.5454 22.7525H15.9624V17.0194C15.9624 16.7126 15.9846 16.4065 16.0749 16.1869C16.3218 15.574 16.884 14.9394 17.8279 14.9394C19.0648 14.9394 19.5592 15.8807 19.5592 17.2602V22.7522H22.9756Z" fill="#46178F"/>
</g>
</svg>
