<svg width="50" height="50" viewBox="0 0 50 50" fill="none" xmlns="http://www.w3.org/2000/svg">
<g id="icon" clip-path="url(#clip0_1_77)">
<rect id="icon bd" width="50" height="50" rx="19" fill="#FFC43B"/>
<path id="Vector" d="M22.2625 27.75H25.2875C25.452 27.751 25.6151 27.7194 25.7674 27.6572C25.9197 27.595 26.0582 27.5034 26.175 27.3875L30.65 22.9125C30.8828 22.6783 31.0135 22.3615 31.0135 22.0313C31.0135 21.701 30.8828 21.3842 30.65 21.15L27.625 18.15C27.3908 17.9172 27.074 17.7865 26.7437 17.7865C26.4135 17.7865 26.0967 17.9172 25.8625 18.15L21.3875 22.625C21.152 22.8558 21.0172 23.1703 21.0125 23.5V26.5C21.0125 26.8315 21.1442 27.1495 21.3786 27.3839C21.613 27.6183 21.931 27.75 22.2625 27.75ZM23.5125 24L26.75 20.8L28 22.05L24.775 25.25H23.525L23.5125 24ZM36.75 29H35.5V16.5H36.75C37.0815 16.5 37.3995 16.3683 37.6339 16.1339C37.8683 15.8995 38 15.5815 38 15.25C38 14.9185 37.8683 14.6005 37.6339 14.3661C37.3995 14.1317 37.0815 14 36.75 14H14.25C13.9185 14 13.6005 14.1317 13.3661 14.3661C13.1317 14.6005 13 14.9185 13 15.25C13 15.5815 13.1317 15.8995 13.3661 16.1339C13.6005 16.3683 13.9185 16.5 14.25 16.5H15.5V29H14.25C13.9185 29 13.6005 29.1317 13.3661 29.3661C13.1317 29.6005 13 29.9185 13 30.25C13 30.5815 13.1317 30.8995 13.3661 31.1339C13.6005 31.3683 13.9185 31.5 14.25 31.5H24.25V32.9375L18.5625 36.6875C18.3292 36.8319 18.1498 37.0491 18.0522 37.3056C17.9546 37.5621 17.944 37.8435 18.0222 38.1066C18.1004 38.3696 18.263 38.5996 18.4849 38.7611C18.7068 38.9225 18.9757 39.0065 19.25 39C19.4958 39.0028 19.7362 38.9285 19.9375 38.7875L24.25 35.9375V37.75C24.25 38.0815 24.3817 38.3995 24.6161 38.6339C24.8505 38.8683 25.1685 39 25.5 39C25.8315 39 26.1495 38.8683 26.3839 38.6339C26.6183 38.3995 26.75 38.0815 26.75 37.75V35.9375L31.0625 38.7875C31.2638 38.9285 31.5042 39.0028 31.75 39C32.0171 38.9979 32.2764 38.9104 32.4901 38.7502C32.7038 38.59 32.8606 38.3656 32.9375 38.1098C33.0143 37.8541 33.0073 37.5804 32.9173 37.3289C32.8273 37.0775 32.6592 36.8614 32.4375 36.7125L26.75 32.9625V31.5H36.75C37.0815 31.5 37.3995 31.3683 37.6339 31.1339C37.8683 30.8995 38 30.5815 38 30.25C38 29.9185 37.8683 29.6005 37.6339 29.3661C37.3995 29.1317 37.0815 29 36.75 29ZM33 29H18V16.5H33V29Z" fill="white"/>
</g>
<defs>
<clipPath id="clip0_1_77">
<rect width="50" height="50" fill="white"/>
</clipPath>
</defs>
</svg>
