<svg width="25" height="25" viewBox="0 0 25 25" fill="none" xmlns="http://www.w3.org/2000/svg">
<g id="mobile" clip-path="url(#clip0_1_90)">
<path id="Vector" d="M12.5 1.5625C12.397 1.5625 12.2963 1.59305 12.2106 1.65028C12.125 1.70751 12.0582 1.78885 12.0188 1.88402C11.9794 1.97919 11.9691 2.08391 11.9892 2.18494C12.0093 2.28597 12.0589 2.37878 12.1317 2.45162C12.2046 2.52446 12.2974 2.57406 12.3984 2.59416C12.4994 2.61426 12.6041 2.60394 12.6993 2.56452C12.7945 2.5251 12.8758 2.45834 12.9331 2.37269C12.9903 2.28704 13.0208 2.18634 13.0208 2.08333C13.0208 1.9452 12.966 1.81272 12.8683 1.71505C12.7706 1.61737 12.6381 1.5625 12.5 1.5625V1.5625ZM17.7083 0H7.29167C6.601 0 5.93862 0.274367 5.45024 0.762743C4.96187 1.25112 4.6875 1.9135 4.6875 2.60417V22.3958C4.6875 22.7378 4.75486 23.0765 4.88573 23.3924C5.0166 23.7084 5.20842 23.9954 5.45024 24.2373C5.69206 24.4791 5.97914 24.6709 6.2951 24.8018C6.61105 24.9326 6.94968 25 7.29167 25H17.7083C18.0503 25 18.389 24.9326 18.7049 24.8018C19.0209 24.6709 19.3079 24.4791 19.5498 24.2373C19.7916 23.9954 19.9834 23.7084 20.1143 23.3924C20.2451 23.0765 20.3125 22.7378 20.3125 22.3958V2.60417C20.3125 1.9135 20.0381 1.25112 19.5498 0.762743C19.0614 0.274367 18.399 0 17.7083 0V0ZM19.2708 22.3958C19.2708 22.8102 19.1062 23.2077 18.8132 23.5007C18.5202 23.7937 18.1227 23.9583 17.7083 23.9583H7.29167C6.87727 23.9583 6.47984 23.7937 6.18681 23.5007C5.89379 23.2077 5.72917 22.8102 5.72917 22.3958V18.75H19.2708V22.3958ZM19.2708 17.7083H5.72917V4.16667H19.2708V17.7083ZM19.2708 3.125H5.72917V2.60417C5.72917 2.18977 5.89379 1.79234 6.18681 1.49931C6.47984 1.20629 6.87727 1.04167 7.29167 1.04167H17.7083C18.1227 1.04167 18.5202 1.20629 18.8132 1.49931C19.1062 1.79234 19.2708 2.18977 19.2708 2.60417V3.125ZM12.5 22.9167C12.809 22.9167 13.1111 22.825 13.3681 22.6533C13.625 22.4816 13.8253 22.2376 13.9436 21.9521C14.0618 21.6666 14.0928 21.3524 14.0325 21.0493C13.9722 20.7462 13.8234 20.4678 13.6049 20.2493C13.3863 20.0308 13.1079 19.882 12.8048 19.8217C12.5017 19.7614 12.1876 19.7923 11.9021 19.9106C11.6165 20.0289 11.3725 20.2291 11.2008 20.4861C11.0291 20.743 10.9375 21.0451 10.9375 21.3542C10.9375 21.7686 11.1021 22.166 11.3951 22.459C11.6882 22.752 12.0856 22.9167 12.5 22.9167ZM12.5 20.8333C12.603 20.8333 12.7037 20.8639 12.7894 20.9211C12.875 20.9783 12.9418 21.0597 12.9812 21.1549C13.0206 21.25 13.0309 21.3547 13.0108 21.4558C12.9907 21.5568 12.9411 21.6496 12.8683 21.7225C12.7954 21.7953 12.7026 21.8449 12.6016 21.865C12.5006 21.8851 12.3959 21.8748 12.3007 21.8354C12.2055 21.7959 12.1242 21.7292 12.0669 21.6435C12.0097 21.5579 11.9792 21.4572 11.9792 21.3542C11.9792 21.216 12.034 21.0836 12.1317 20.9859C12.2294 20.8882 12.3619 20.8333 12.5 20.8333Z" fill="white"/>
</g>
<defs>
<clipPath id="clip0_1_90">
<rect width="25" height="25" fill="white"/>
</clipPath>
</defs>
</svg>
