<svg width="25" height="25" viewBox="0 0 25 25" fill="none" xmlns="http://www.w3.org/2000/svg">
<g id="Sofa">
<path id="Vector" d="M21.875 10.1563H21.0938V3.125C21.0938 2.9178 21.0114 2.71909 20.8649 2.57257C20.7184 2.42606 20.5197 2.34375 20.3125 2.34375H4.6875C4.4803 2.34375 4.28159 2.42606 4.13507 2.57257C3.98856 2.71909 3.90625 2.9178 3.90625 3.125V10.1563H3.125C2.9178 10.1563 2.71909 10.2386 2.57257 10.3851C2.42606 10.5316 2.34375 10.7303 2.34375 10.9375V20.3125C2.34375 20.5197 2.42606 20.7184 2.57257 20.8649C2.71909 21.0114 2.9178 21.0938 3.125 21.0938H4.6875V21.875C4.6875 22.0822 4.76981 22.2809 4.91632 22.4274C5.06284 22.5739 5.26155 22.6563 5.46875 22.6563C5.67595 22.6563 5.87466 22.5739 6.02118 22.4274C6.16769 22.2809 6.25 22.0822 6.25 21.875V21.0938H18.75V21.875C18.75 22.0822 18.8323 22.2809 18.9788 22.4274C19.1253 22.5739 19.3241 22.6563 19.5313 22.6563C19.7385 22.6563 19.9372 22.5739 20.0837 22.4274C20.2302 22.2809 20.3125 22.0822 20.3125 21.875V21.0938H21.875C22.0822 21.0938 22.2809 21.0114 22.4274 20.8649C22.5739 20.7184 22.6563 20.5197 22.6563 20.3125V10.9375C22.6563 10.7303 22.5739 10.5316 22.4274 10.3851C22.2809 10.2386 22.0822 10.1563 21.875 10.1563ZM5.46875 3.90625H19.5313V10.1563H17.9688C17.7616 10.1563 17.5628 10.2386 17.4163 10.3851C17.2698 10.5316 17.1875 10.7303 17.1875 10.9375V13.2813H7.8125V10.9375C7.8125 10.7303 7.73019 10.5316 7.58368 10.3851C7.43717 10.2386 7.23845 10.1563 7.03125 10.1563H5.46875V3.90625ZM7.8125 14.8438H17.1875V16.4063H7.8125V14.8438ZM21.0938 19.5313H3.90625V11.7188H6.25V17.1875C6.25 17.3947 6.33231 17.5934 6.47882 17.7399C6.62534 17.8864 6.82405 17.9688 7.03125 17.9688H17.9688C18.176 17.9688 18.3747 17.8864 18.5212 17.7399C18.6677 17.5934 18.75 17.3947 18.75 17.1875V11.7188H21.0938V19.5313Z" fill="white"/>
</g>
</svg>
